/* XPM */
static char *result[] = {
/* columns rows colors chars-per-pixel */
"26 26 6 1 ",
"  c black",
". c #0080FF",
"X c cyan",
"o c #FFFF80",
"O c white",
"+ c None",
/* pixels */
"++++++++++++++++++++++++++",
"++++++++++++++++++++++++++",
"++++++++++++++++++++++++++",
"+++++++++++++   ++++++++++",
"+++++++++++   XX +++++++++",
"++++++++++ ... XX ++++++++",
"+++++++++ .....    +++++++",
"+++++++++ ..... XX. ++++++",
"++++++   X......  . ++++++",
"++++  XX X..oOOO..O ++++++",
"+++ . XX X.oOO  o O ++++++",
"++ ... XX .oOO  o O +   ++",
"+ .... XX .ooOOOoOo  ... +",
"+ ... + XX .o    o + ... +",
"+ ... + XXX ooooo X  ... +",
"++   ++ .XXX     XXX... ++",
"++++  + ...XXXXX XX... +++",
"+++ ..  ......X + X.. ++++",
"++ ....  ..XXX +++   +++++",
"+ .....X  .XXXX ++++++++++",
"+ .. ..XXX  XXX. +++++++++",
"++    .XX + .... +++++++++",
"++++++   ++ ...   ++++++++",
"++++++++++ ....... +++++++",
"++++++++++         +++++++",
"++++++++++++++++++++++++++"
};
