/* XPM */
static char *result[] = {
/* columns rows colors chars-per-pixel */
"26 26 6 1 ",
"  c black",
". c #0080FF",
"X c cyan",
"o c #FFFF80",
"O c white",
"+ c None",
/* pixels */
"++++++++++++++++++++++++++",
"++++++++++++++++++++++++++",
"++++++++++++++++++++++++++",
"++++++++++++++++   +++++++",
"++++++++++++++   XX ++++++",
"+++++++++++++ ... XX +++++",
"++++++++++++ .....    ++++",
"++++++++++++ ..... XX. +++",
"+++++++++++ X......  . +++",
"+++++++++++ X..oOOO..O +++",
"+++++++++   X.oOO  o O +++",
"+++++++  XXX .oOO  o O +++",
"++++++ ...XXX ooOOOoOo +++",
"+++++ ....XX XXo    o ++++",
"+++++ ...   XXXX.ooo   +++",
"+++++ ... + XXXXX   ... ++",
"++++++   + .X .XX...... ++",
"+++++ ..   ..X .X...... ++",
"++++ .... X....        +++",
"+++ .....XXX....XXX ++++++",
"+++ .. ..XXX   XXX.. +++++",
"++++    ..X +++ .... +++++",
"++++++++   ++++ ...   ++++",
"++++++++++++++ ....... +++",
"++++++++++++++         +++",
"++++++++++++++++++++++++++"
};
